HIERARCHY
ROOT Root
{
  OFFSET 0.0 0.0 0.0
  CHANNELS 6 Xposition Yposition Zposition Zrotation Yrotation Xrotation
  JOINT Hips
  {
    OFFSET 0.0 100.0 0.0
    CHANNELS 6 Xposition Yposition Zposition Zrotation Yrotation Xrotation
    JOINT Spine1
    {
      OFFSET 5.003913 -0.037094 -0.013727
      CHANNELS 3 Zrotation Yrotation Xrotation
      JOINT Spine2
      {
        OFFSET 7.125363 -1e-06 0.0
        CHANNELS 3 Zrotation Yrotation Xrotation
        JOINT Chest
        {
          OFFSET 7.594027 1e-06 0.0
          CHANNELS 3 Zrotation Yrotation Xrotation
          JOINT Neck1
          {
            OFFSET 26.313086 -0.460272 -0.181672
            CHANNELS 3 Zrotation Yrotation Xrotation
            JOINT Neck2
            {
              OFFSET 8.045911 0.0 0.0
              CHANNELS 3 Zrotation Yrotation Xrotation
              JOINT Head
              {
                OFFSET 6.432774 0.0 0.0
                CHANNELS 3 Zrotation Yrotation Xrotation
                JOINT HeadEnd
                {
                  OFFSET 16.169773 0.06451 0.00362
                  CHANNELS 3 Zrotation Yrotation Xrotation
                }
                JOINT Jaw
                {
                  OFFSET 0.108741 3.12938 0.002639
                  CHANNELS 3 Zrotation Yrotation Xrotation
                }
                JOINT LeftEye
                {
                  OFFSET 4.45173 8.166359 3.206392
                  CHANNELS 3 Zrotation Yrotation Xrotation
                }
                JOINT RightEye
                {
                  OFFSET 4.436895 8.135758 -3.222429
                  CHANNELS 3 Zrotation Yrotation Xrotation
                }
              }
            }
          }
          JOINT LeftShoulder
          {
            OFFSET 23.218927 5.195579 1.621656
            CHANNELS 3 Zrotation Yrotation Xrotation
            JOINT LeftArm
            {
              OFFSET 15.902118 2e-06 -2e-06
              CHANNELS 3 Zrotation Yrotation Xrotation
              JOINT LeftForeArm
              {
                OFFSET 28.739307 0.0 -1e-06
                CHANNELS 3 Zrotation Yrotation Xrotation
                JOINT LeftHand
                {
                  OFFSET 27.093981 -4e-06 0.0
                  CHANNELS 3 Zrotation Yrotation Xrotation
                  JOINT LeftHandThumb1
                  {
                    OFFSET 2.276781 3.380274 0.83384
                    CHANNELS 3 Zrotation Yrotation Xrotation
                    JOINT LeftHandThumb2
                    {
                      OFFSET 4.705309 -1e-06 -1e-06
                      CHANNELS 3 Zrotation Yrotation Xrotation
                      JOINT LeftHandThumb3
                      {
                        OFFSET 2.798515 0.0 3e-06
                        CHANNELS 3 Zrotation Yrotation Xrotation
                        JOINT LeftHandThumbEnd
                        {
                          OFFSET 3.180793 4e-06 -4e-06
                          CHANNELS 3 Zrotation Yrotation Xrotation
                        }
                      }
                    }
                  }
                  JOINT LeftHandIndex1
                  {
                    OFFSET 3.247786 2.352677 0.137192
                    CHANNELS 3 Zrotation Yrotation Xrotation
                    JOINT LeftHandIndex2
                    {
                      OFFSET 6.367095 1e-06 0.0
                      CHANNELS 3 Zrotation Yrotation Xrotation
                      JOINT LeftHandIndex3
                      {
                        OFFSET 3.662364 0.0 0.0
                        CHANNELS 3 Zrotation Yrotation Xrotation
                        JOINT LeftHandIndex4
                        {
                          OFFSET 2.329242 4e-06 -4e-06
                          CHANNELS 3 Zrotation Yrotation Xrotation
                          JOINT LeftHandIndexEnd
                          {
                            OFFSET 2.767823 1e-06 0.0
                            CHANNELS 3 Zrotation Yrotation Xrotation
                          }
                        }
                      }
                    }
                  }
                  JOINT LeftHandMiddle1
                  {
                    OFFSET 3.163612 0.945023 -0.406112
                    CHANNELS 3 Zrotation Yrotation Xrotation
                    JOINT LeftHandMiddle2
                    {
                      OFFSET 6.276789 3e-06 0.0
                      CHANNELS 3 Zrotation Yrotation Xrotation
                      JOINT LeftHandMiddle3
                      {
                        OFFSET 4.35652 -1e-06 4e-06
                        CHANNELS 3 Zrotation Yrotation Xrotation
                        JOINT LeftHandMiddle4
                        {
                          OFFSET 2.996877 0.0 8e-06
                          CHANNELS 3 Zrotation Yrotation Xrotation
                          JOINT LeftHandMiddleEnd
                          {
                            OFFSET 2.323256 3e-06 -4e-06
                            CHANNELS 3 Zrotation Yrotation Xrotation
                          }
                        }
                      }
                    }
                  }
                  JOINT LeftHandRing1
                  {
                    OFFSET 2.882606 -0.309162 0.107445
                    CHANNELS 3 Zrotation Yrotation Xrotation
                    JOINT LeftHandRing2
                    {
                      OFFSET 6.033198 0.0 4e-06
                      CHANNELS 3 Zrotation Yrotation Xrotation
                      JOINT LeftHandRing3
                      {
                        OFFSET 4.350578 3e-06 0.0
                        CHANNELS 3 Zrotation Yrotation Xrotation
                        JOINT LeftHandRing4
                        {
                          OFFSET 2.651321 2e-06 -7e-06
                          CHANNELS 3 Zrotation Yrotation Xrotation
                          JOINT LeftHandRingEnd
                          {
                            OFFSET 1.937663 1e-06 -4e-06
                            CHANNELS 3 Zrotation Yrotation Xrotation
                          }
                        }
                      }
                    }
                  }
                  JOINT LeftHandPinky1
                  {
                    OFFSET 2.865315 -1.525436 0.575687
                    CHANNELS 3 Zrotation Yrotation Xrotation
                    JOINT LeftHandPinky2
                    {
                      OFFSET 5.54936 1e-06 -8e-06
                      CHANNELS 3 Zrotation Yrotation Xrotation
                      JOINT LeftHandPinky3
                      {
                        OFFSET 3.070974 0.0 -4e-06
                        CHANNELS 3 Zrotation Yrotation Xrotation
                        JOINT LeftHandPinky4
                        {
                          OFFSET 1.549672 1e-06 0.0
                          CHANNELS 3 Zrotation Yrotation Xrotation
                          JOINT LeftHandPinkyEnd
                          {
                            OFFSET 1.952123 0.0 0.0
                            CHANNELS 3 Zrotation Yrotation Xrotation
                          }
                        }
                      }
                    }
                  }
                }
              }
            }
          }
          JOINT RightShoulder
          {
            OFFSET 23.161716 5.296122 -1.380114
            CHANNELS 3 Zrotation Yrotation Xrotation
            JOINT RightArm
            {
              OFFSET -16.027195 -2e-06 1.1e-05
              CHANNELS 3 Zrotation Yrotation Xrotation
              JOINT RightForeArm
              {
                OFFSET -28.736639 4e-06 2e-06
                CHANNELS 3 Zrotation Yrotation Xrotation
                JOINT RightHand
                {
                  OFFSET -27.133619 6e-06 0.0
                  CHANNELS 3 Zrotation Yrotation Xrotation
                  JOINT RightHandThumb1
                  {
                    OFFSET -2.274328 -3.351035 -0.83067
                    CHANNELS 3 Zrotation Yrotation Xrotation
                    JOINT RightHandThumb2
                    {
                      OFFSET -4.703594 -3e-06 2e-06
                      CHANNELS 3 Zrotation Yrotation Xrotation
                      JOINT RightHandThumb3
                      {
                        OFFSET -2.794935 -4e-06 -3e-06
                        CHANNELS 3 Zrotation Yrotation Xrotation
                        JOINT RightHandThumbEnd
                        {
                          OFFSET -3.183852 4e-06 1e-06
                          CHANNELS 3 Zrotation Yrotation Xrotation
                        }
                      }
                    }
                  }
                  JOINT RightHandIndex1
                  {
                    OFFSET -3.253496 -2.33755 -0.127667
                    CHANNELS 3 Zrotation Yrotation Xrotation
                    JOINT RightHandIndex2
                    {
                      OFFSET -6.344434 0.0 0.0
                      CHANNELS 3 Zrotation Yrotation Xrotation
                      JOINT RightHandIndex3
                      {
                        OFFSET -3.654871 0.0 -8e-06
                        CHANNELS 3 Zrotation Yrotation Xrotation
                        JOINT RightHandIndex4
                        {
                          OFFSET -2.327586 -1e-06 0.0
                          CHANNELS 3 Zrotation Yrotation Xrotation
                          JOINT RightHandIndexEnd
                          {
                            OFFSET -2.770001 3e-06 8e-06
                            CHANNELS 3 Zrotation Yrotation Xrotation
                          }
                        }
                      }
                    }
                  }
                  JOINT RightHandMiddle1
                  {
                    OFFSET -3.168223 -0.944764 0.411762
                    CHANNELS 3 Zrotation Yrotation Xrotation
                    JOINT RightHandMiddle2
                    {
                      OFFSET -6.266691 -1e-06 -4e-06
                      CHANNELS 3 Zrotation Yrotation Xrotation
                      JOINT RightHandMiddle3
                      {
                        OFFSET -4.348901 0.0 0.0
                        CHANNELS 3 Zrotation Yrotation Xrotation
                        JOINT RightHandMiddle4
                        {
                          OFFSET -3.00024 2e-06 -4e-06
                          CHANNELS 3 Zrotation Yrotation Xrotation
                          JOINT RightHandMiddleEnd
                          {
                            OFFSET -2.321477 -4e-06 -4e-06
                            CHANNELS 3 Zrotation Yrotation Xrotation
                          }
                        }
                      }
                    }
                  }
                  JOINT RightHandRing1
                  {
                    OFFSET -2.885654 0.293261 -0.119232
                    CHANNELS 3 Zrotation Yrotation Xrotation
                    JOINT RightHandRing2
                    {
                      OFFSET -6.032835 -1e-06 -4e-06
                      CHANNELS 3 Zrotation Yrotation Xrotation
                      JOINT RightHandRing3
                      {
                        OFFSET -4.33881 0.0 -4e-06
                        CHANNELS 3 Zrotation Yrotation Xrotation
                        JOINT RightHandRing4
                        {
                          OFFSET -2.654903 -4e-06 -4e-06
                          CHANNELS 3 Zrotation Yrotation Xrotation
                          JOINT RightHandRingEnd
                          {
                            OFFSET -1.935122 0.0 4e-06
                            CHANNELS 3 Zrotation Yrotation Xrotation
                          }
                        }
                      }
                    }
                  }
                  JOINT RightHandPinky1
                  {
                    OFFSET -2.866241 1.503904 -0.60527
                    CHANNELS 3 Zrotation Yrotation Xrotation
                    JOINT RightHandPinky2
                    {
                      OFFSET -5.553177 -2e-06 0.0
                      CHANNELS 3 Zrotation Yrotation Xrotation
                      JOINT RightHandPinky3
                      {
                        OFFSET -3.062664 -1e-06 -4e-06
                        CHANNELS 3 Zrotation Yrotation Xrotation
                        JOINT RightHandPinky4
                        {
                          OFFSET -1.546529 2e-06 4e-06
                          CHANNELS 3 Zrotation Yrotation Xrotation
                          JOINT RightHandPinkyEnd
                          {
                            OFFSET -1.952341 0.0 -4e-06
                            CHANNELS 3 Zrotation Yrotation Xrotation
                          }
                        }
                      }
                    }
                  }
                }
              }
            }
          }
        }
      }
    }
    JOINT LeftLeg
    {
      OFFSET -8.443107 2.567604 10.043214
      CHANNELS 3 Zrotation Yrotation Xrotation
      JOINT LeftShin
      {
        OFFSET 43.229198 1e-06 -1e-06
        CHANNELS 3 Zrotation Yrotation Xrotation
        JOINT LeftFoot
        {
          OFFSET 42.298611 1e-06 1e-06
          CHANNELS 3 Zrotation Yrotation Xrotation
          JOINT LeftToeBase
          {
            OFFSET 14.165858 1e-06 0.0
            CHANNELS 3 Zrotation Yrotation Xrotation
            JOINT LeftToeEnd
            {
              OFFSET 6.7141 -0.234461 0.0
              CHANNELS 3 Zrotation Yrotation Xrotation
            }
          }
        }
      }
    }
    JOINT RightLeg
    {
      OFFSET -8.303923 2.592729 -10.047278
      CHANNELS 3 Zrotation Yrotation Xrotation
      JOINT RightShin
      {
        OFFSET -43.369682 0.0 1e-06
        CHANNELS 3 Zrotation Yrotation Xrotation
        JOINT RightFoot
        {
          OFFSET -42.260784 4e-06 2e-06
          CHANNELS 3 Zrotation Yrotation Xrotation
          JOINT RightToeBase
          {
            OFFSET -14.222245 -2e-06 -1e-06
            CHANNELS 3 Zrotation Yrotation Xrotation
            JOINT RightToeEnd
            {
              OFFSET -6.660062 0.232574 -2e-06
              CHANNELS 3 Zrotation Yrotation Xrotation
            }
          }
        }
      }
    }
  }
}
MOTION
Frames: 4
Frame Time: 0.03333333333333333
0.0 0.0 0.0 0.0 -0.0 0.0 -2.14145 99.532166 -4.5316 90.626312 2.822696 89.512665 -4.257541 -0.050596 -0.314988 -11.922533 -0.981576 -0.778845 20.839674 -1.067746 -3.483058 18.549463 -1.412921 2.919655 -2.705874 -0.422448 1.987411 -25.645624 1.988586 0.799462 -4e-06 0.000526 0.00021 -0.067086 0.003458 0.118123 -0.050224 0.079859 0.127677 -0.036903 -0.078719 0.116382 -149.336487 -67.095566 164.205658 15.438367 -52.03635 17.422874 36.253929 0.191606 -0.009036 -0.704548 2.482654 16.212729 17.685545 -26.392523 52.503468 -19.490198 -14.409541 29.420446 -0.004802 -8.779311 0.007296 15.617139 -18.299894 6.455357 -0.605771 -1.800473 -3.907239 -4.812451 -11.056781 -2.931673 0.009743 -20.992941 -0.009821 -5.018836 -25.047276 -4.030346 -0.006254 -0.003825 0.00293 -10.646772 -5.690658 -3.568906 10.614199 -17.960043 -3.132319 0.009754 -13.847115 -0.000614 -0.493353 -31.237389 -4.017474 -12.362144 -59.648762 8.532481 -13.992448 -7.148634 -2.882359 13.799592 -8.429281 -3.226597 0.393136 -34.30455 0.754828 -0.959322 -17.759434 2.631711 -0.002569 -0.009808 0.005982 -17.351482 -20.109787 -4.218776 21.777998 -1.654227 3.866422 0.004473 -6.347207 0.001741 -1.691393 -22.59223 -6.183684 2.2e-05 -0.006359 -0.001991 19.524481 -63.111931 176.742279 27.917055 -46.606319 16.427324 28.119976 -0.539806 -0.005154 -5.065528 -4.712239 -3.444249 22.199921 -20.430653 49.998493 -16.708914 -16.751348 28.488224 -0.002755 -12.698788 0.003883 15.965916 -17.991491 2.877789 -0.103356 -1.514884 -4.280031 -5.048571 -5.623157 -2.963235 -0.007137 -11.02477 0.018349 -6.124297 -15.905649 -3.845365 0.001815 0.001663 -0.00018 -10.292741 -5.681808 -4.336649 11.029706 -11.321159 -2.369996 -1.378495 -14.250154 -6.321253 -0.629749 -26.947184 -3.83802 -4.161859 -49.827076 -3.873618 -13.722244 -7.368548 -3.707237 18.160437 -14.065465 -3.26265 0.002073 -18.821032 0.014619 -0.425519 -8.451235 2.554841 0.0 -0.002328 -0.000809 -15.930356 -20.108891 -5.464539 30.435587 -7.197653 1.722356 0.001034 -8.17283 0.004021 -1.853861 -22.887117 -6.165471 0.003001 0.012335 -0.001024 -177.595856 -4.159088 -9.270388 13.352877 -0.004209 0.315298 -81.412193 1.214636 -7.583217 -5.398549 1.468076 2.099254 -0.992334 -0.000606 -0.000127 0.904671 -5.16268 -6.342041 16.115993 0.018413 0.071806 -82.057007 -6.755805 -6.949161 -5.160754 0.571372 1.656419 -1.000716 0.00465 0.001072 
0.0 0.0 0.0 0.0 -0.0 0.0 -2.158152 99.545647 -4.522967 90.616203 2.801984 89.47718 -4.297621 -0.062309 -0.331491 -11.922646 -0.96303 -0.763722 20.829512 -1.066496 -3.494446 18.547934 -1.408325 2.886491 -2.705693 -0.438368 1.99649 -25.567745 1.975354 0.801446 0.001902 0.000316 -3e-05 -0.063263 0.009486 0.133907 -0.034348 0.081855 0.147643 -0.026613 -0.068896 0.126798 -149.376236 -67.057022 164.190155 15.318796 -51.992603 17.41552 36.33659 0.057727 -0.03041 -0.684967 2.473358 16.538839 17.66791 -26.431183 52.596611 -19.506357 -14.44023 29.4895 -0.007234 -8.795946 0.017121 15.66959 -18.350519 6.4516 -0.612701 -1.80289 -3.891712 -4.801317 -11.049542 -2.95456 0.011721 -21.004158 0.012612 -5.018296 -25.066317 -4.045979 -0.00099 0.000738 0.002038 -10.655012 -5.687311 -3.558719 10.616829 -17.954906 -3.12165 0.023949 -13.846749 -0.000306 -0.49554 -31.198317 -4.015693 -12.296871 -59.595081 8.529963 -14.005542 -7.157384 -2.885861 13.808881 -8.414501 -3.219831 0.337997 -34.265774 0.780304 -0.966016 -17.763628 2.647366 -0.000505 -0.007109 -0.00752 -17.368826 -20.114292 -4.218419 21.806423 -1.665347 3.870907 -0.004959 -6.345955 0.025155 -1.671826 -22.604767 -6.201964 0.000985 0.001629 5.5e-05 19.654978 -63.048882 176.630829 27.888723 -46.529816 16.49896 28.154251 -0.439139 0.043851 -5.007443 -4.694967 -3.633315 22.221933 -20.467491 50.153538 -16.711033 -16.809566 28.5709 0.000228 -12.718394 -0.004107 15.958496 -18.003075 2.875772 -0.10595 -1.507098 -4.294995 -5.055381 -5.625338 -2.954944 1.1e-05 -11.04244 -0.009619 -6.130437 -15.929461 -3.84924 -0.004749 0.009081 0.000135 -10.298232 -5.68048 -4.350204 11.050602 -11.320119 -2.379265 -1.381406 -14.249952 -6.337283 -0.612747 -26.960545 -3.835885 -4.075562 -49.699928 -3.978966 -13.731631 -7.369302 -3.727431 18.16077 -14.036442 -3.256845 -0.009921 -18.809216 0.009164 -0.440752 -8.451874 2.578123 -0.006768 0.009435 -0.008009 -15.961889 -20.119722 -5.494163 30.50491 -7.201664 1.746046 -0.008085 -8.148829 0.014064 -1.883143 -22.879772 -6.182621 0.001693 -0.010799 0.001873 -177.523819 -4.151117 -9.179698 13.174761 -0.004692 0.308887 -81.384018 1.046696 -7.53898 -5.421619 1.470431 2.105642 -0.999637 0.001969 8e-06 0.936073 -5.124294 -6.314676 15.987608 0.000513 0.040948 -81.987869 -6.725741 -6.969745 -5.234738 0.570689 1.651863 -1.003499 0.004521 0.0004 
0.0 0.0 0.0 0.0 -0.0 0.0 -2.128618 99.551346 -4.544507 90.604599 2.79165 89.436539 -4.343781 -0.057612 -0.330265 -11.943113 -0.969444 -0.769817 20.84095 -1.053092 -3.508826 18.550211 -1.42303 2.891458 -2.709524 -0.440108 1.988384 -25.482527 1.990063 0.845678 0.00189 -0.000198 -0.000406 -0.060185 0.011018 0.129341 -0.04506 0.076311 0.144103 -0.023265 -0.060357 0.118489 -149.365112 -66.872742 164.164764 15.142033 -51.832249 17.471642 36.391109 0.006869 -0.045659 -0.69745 2.455306 16.760172 17.641911 -26.337675 52.446186 -19.444149 -14.412235 29.408722 0.002162 -8.780564 -0.011844 15.657232 -18.33313 6.432084 -0.618282 -1.790055 -3.89944 -4.806228 -11.03788 -2.937039 -6e-05 -20.953333 -0.002375 -5.020908 -24.993229 -4.042051 -0.001276 0.002445 1.5e-05 -10.630835 -5.675781 -3.570304 10.558183 -17.90411 -3.101168 -0.014067 -13.813905 0.015184 -0.525959 -31.154505 -4.025033 -12.234181 -59.595196 8.385307 -13.980961 -7.147106 -2.878366 13.780236 -8.382147 -3.216813 0.322713 -34.202335 0.767271 -0.967137 -17.715275 2.615327 -0.000512 -0.003128 0.003774 -17.346189 -20.069864 -4.207085 21.774803 -1.638615 3.858649 -0.010052 -6.337342 0.011167 -1.711866 -22.593691 -6.189769 0.004586 0.002359 -0.013797 19.578846 -62.938515 176.685028 27.81078 -46.489559 16.52689 28.146591 -0.361761 0.056837 -4.941606 -4.657037 -3.791451 22.161745 -20.426805 49.965111 -16.676144 -16.754652 28.494974 -0.00434 -12.683281 -0.002478 15.955454 -17.961071 2.874983 -0.108671 -1.517443 -4.284051 -5.032901 -5.603817 -2.926317 0.001184 -11.014318 -0.003931 -6.103271 -15.880322 -3.834021 0.001311 -0.006753 0.00088 -10.272288 -5.674292 -4.334435 11.021099 -11.298635 -2.367676 -1.387866 -14.227385 -6.303226 -0.627864 -26.888699 -3.836207 -4.060469 -49.682911 -4.011497 -13.694675 -7.352495 -3.719897 18.119713 -14.040965 -3.233742 0.001691 -18.778055 0.020718 -0.426404 -8.448738 2.558762 -0.004266 0.00741 -0.015826 -15.903253 -20.07539 -5.46601 30.394459 -7.190495 1.724079 0.008221 -8.165729 0.01322 -1.849496 -22.846434 -6.17099 0.0 0.000458 0.006195 -177.543427 -4.125824 -9.099215 13.174082 -0.011422 0.303197 -81.428543 0.884465 -7.521451 -5.379932 1.467648 2.102017 -1.00674 0.000297 -0.000622 0.923656 -5.113431 -6.214677 15.934704 -0.011107 0.017984 -81.97683 -6.741199 -6.982582 -5.24101 0.564019 1.641229 -0.998304 -0.001383 -3.4e-05 
0.0 0.0 0.0 0.0 -0.0 0.0 -2.131769 99.542175 -4.53448 90.601028 2.80234 89.38739 -4.35823 -0.051908 -0.323647 -11.982506 -0.988029 -0.792897 20.870136 -1.034327 -3.518958 18.59133 -1.431081 2.927147 -2.723377 -0.455621 1.967224 -25.423094 1.99229 0.865172 1e-06 -6.6e-05 2e-05 -0.051424 0.010589 0.120997 -0.050086 0.067902 0.135131 -0.039117 -0.053163 0.113847 -149.299011 -66.993668 164.025314 15.069613 -51.980476 17.586569 36.500153 -0.041066 -0.063837 -0.708546 2.50143 16.965031 17.647388 -26.375893 52.608795 -19.505211 -14.408113 29.486355 0.001304 -8.791636 -0.006745 15.681331 -18.370848 6.421087 -0.60051 -1.789556 -3.882095 -4.820323 -11.087092 -2.958995 -0.003791 -21.028158 -0.028928 -5.040259 -25.10388 -4.060794 0.002509 -0.015081 0.01197 -10.646636 -5.68969 -3.563283 10.599148 -17.957062 -3.154355 0.001904 -13.834461 -0.011671 -0.529888 -31.240732 -4.01203 -12.049341 -59.743706 8.331877 -13.995418 -7.14545 -2.886485 13.784062 -8.427637 -3.210349 0.354278 -34.267918 0.756024 -0.959383 -17.762699 2.601875 -0.002543 0.016205 0.010952 -17.358601 -20.130352 -4.225652 21.780203 -1.643472 3.870152 -0.010097 -6.348722 0.001358 -1.67189 -22.637337 -6.214478 -0.007479 0.003627 -9.2e-05 19.571882 -63.037647 176.753357 27.885796 -46.513535 16.547081 28.164392 -0.331456 0.006151 -4.899496 -4.642961 -3.803048 22.183668 -20.439154 50.058655 -16.722057 -16.771414 28.567183 -0.005643 -12.70019 -0.003048 15.99668 -18.005728 2.878177 -0.106761 -1.517161 -4.289082 -5.037345 -5.618407 -2.945457 0.007161 -11.038242 -0.000345 -6.097811 -15.933529 -3.856262 -0.000572 0.005048 0.007192 -10.288122 -5.683682 -4.350286 11.043513 -11.317005 -2.374401 -1.378728 -14.260334 -6.32774 -0.603236 -26.952156 -3.841429 -4.010663 -49.763611 -4.060474 -13.711707 -7.365176 -3.734463 18.169279 -14.074984 -3.248035 -0.002086 -18.801342 -0.008972 -0.426158 -8.492368 2.56199 -0.002921 0.009807 0.005539 -15.926673 -20.125435 -5.496294 30.460161 -7.207658 1.731232 -0.007725 -8.170971 -0.008207 -1.85903 -22.89934 -6.148381 -0.001686 0.022193 0.003562 -177.561172 -4.135614 -9.045361 13.270145 -0.008145 0.307986 -81.381172 0.762534 -7.521284 -5.316038 1.480229 2.105195 -0.992153 -0.004118 0.00071 0.895341 -5.09778 -6.11407 16.018473 -0.013516 -0.006776 -82.03405 -6.74388 -6.971938 -5.226341 0.573525 1.639285 -1.001184 0.004584 0.001687 
